<?xml version="1.0" encoding="UTF-8"?>
<!DOCTYPE svg PUBLIC "-//W3C//DTD SVG 1.1//EN" "http://www.w3.org/Graphics/SVG/1.1/DTD/svg11.dtd">
<svg xmlns="http://www.w3.org/2000/svg" version="1.1" width="500px" height="500px" style="shape-rendering:geometricPrecision; text-rendering:geometricPrecision; image-rendering:optimizeQuality; fill-rule:evenodd; clip-rule:evenodd" xmlns:xlink="http://www.w3.org/1999/xlink">
<g><path style="opacity:1" fill="#fefefe" d="M -0.5,-0.5 C 166.167,-0.5 332.833,-0.5 499.5,-0.5C 499.5,166.167 499.5,332.833 499.5,499.5C 332.833,499.5 166.167,499.5 -0.5,499.5C -0.5,332.833 -0.5,166.167 -0.5,-0.5 Z"/></g>
<g><path style="opacity:1" fill="#b3ab8d" d="M 209.5,97.5 C 236.502,97.3334 263.502,97.5 290.5,98C 308.667,116.167 326.833,134.333 345,152.5C 345.667,180.167 345.667,207.833 345,235.5C 326.833,253.667 308.667,271.833 290.5,290C 263.167,290.667 235.833,290.667 208.5,290C 190.333,271.833 172.167,253.667 154,235.5C 153.333,208.167 153.333,180.833 154,153.5C 172.702,134.965 191.202,116.299 209.5,97.5 Z"/></g>
<g><path style="opacity:1" fill="#fcfbfa" d="M 210.5,98.5 C 236.835,98.3334 263.169,98.5 289.5,99C 308.029,117.195 326.195,135.695 344,154.5C 344.667,181.167 344.667,207.833 344,234.5C 325.833,252.667 307.667,270.833 289.5,289C 262.833,289.667 236.167,289.667 209.5,289C 191.333,270.833 173.167,252.667 155,234.5C 154.333,207.833 154.333,181.167 155,154.5C 173.702,135.965 192.202,117.299 210.5,98.5 Z"/></g>
<g><path style="opacity:1" fill="#aea686" d="M 340.5,156.5 C 340.167,156.5 339.833,156.5 339.5,156.5C 322.035,139.535 304.701,122.368 287.5,105C 262.167,104.333 236.833,104.333 211.5,105C 194.299,122.368 176.965,139.535 159.5,156.5C 159.167,156.5 158.833,156.5 158.5,156.5C 175.965,138.535 193.632,120.701 211.5,103C 236.833,102.333 262.167,102.333 287.5,103C 305.368,120.701 323.035,138.535 340.5,156.5 Z"/></g>
<g><path style="opacity:1" fill="#fefefd" d="M 339.5,156.5 C 339.667,181.502 339.5,206.502 339,231.5C 321.833,248.667 304.667,265.833 287.5,283C 262.167,283.667 236.833,283.667 211.5,283C 194.333,265.833 177.167,248.667 160,231.5C 159.5,206.502 159.333,181.502 159.5,156.5C 176.965,139.535 194.299,122.368 211.5,105C 236.833,104.333 262.167,104.333 287.5,105C 304.701,122.368 322.035,139.535 339.5,156.5 Z"/></g>
<g><path style="opacity:1" fill="#ff8483" d="M 210.5,128.5 C 206.833,129.167 203.167,129.833 199.5,130.5C 197.518,130.005 195.518,129.505 193.5,129C 199.157,128.501 204.824,128.334 210.5,128.5 Z"/></g>
<g><path style="opacity:1" fill="#ff5f5e" d="M 210.5,128.5 C 225.924,126.367 239.424,130.367 251,140.5C 262.544,158.44 260.378,174.607 244.5,189C 240.455,191.573 236.122,193.573 231.5,195C 218.82,195.833 206.154,195.666 193.5,194.5C 195.766,193.686 198.1,193.186 200.5,193C 201.126,192.25 201.626,191.416 202,190.5C 202.667,171.167 202.667,151.833 202,132.5C 201.292,131.619 200.458,130.953 199.5,130.5C 203.167,129.833 206.833,129.167 210.5,128.5 Z"/></g>
<g><path style="opacity:1" fill="#fffefd" d="M 212.5,130.5 C 235.99,128.325 248.323,138.992 249.5,162.5C 249.418,185.745 237.751,196.245 214.5,194C 212.333,193.167 210.833,191.667 210,189.5C 209.333,170.833 209.333,152.167 210,133.5C 211.045,132.627 211.878,131.627 212.5,130.5 Z"/></g>
<g><path style="opacity:1" fill="#4e4c4b" d="M 282.5,148.5 C 283.376,148.369 284.043,148.702 284.5,149.5C 262.556,181.444 240.222,213.111 217.5,244.5C 217.167,244.167 216.833,243.833 216.5,243.5C 238.525,211.815 260.525,180.149 282.5,148.5 Z"/></g>
<g><path style="opacity:1" fill="#a89f7c" d="M 158.5,156.5 C 158.833,156.5 159.167,156.5 159.5,156.5C 159.333,181.502 159.5,206.502 160,231.5C 177.167,248.667 194.333,265.833 211.5,283C 236.833,283.667 262.167,283.667 287.5,283C 304.667,265.833 321.833,248.667 339,231.5C 339.5,206.502 339.667,181.502 339.5,156.5C 339.833,156.5 340.167,156.5 340.5,156.5C 340.667,181.836 340.5,207.169 340,232.5C 322.5,250 305,267.5 287.5,285C 262.167,285.667 236.833,285.667 211.5,285C 194,267.5 176.5,250 159,232.5C 158.5,207.169 158.333,181.836 158.5,156.5 Z"/></g>
<g><path style="opacity:1" fill="#464443" d="M 319.5,190.5 C 320.097,190.735 320.43,191.235 320.5,192C 319.727,198.129 319.227,204.296 319,210.5C 316.609,195.97 308.609,191.636 295,197.5C 294.333,217.167 294.333,236.833 295,256.5C 297.674,258.871 300.841,260.037 304.5,260C 295.167,260.667 285.833,260.667 276.5,260C 279.576,259.654 282.576,258.988 285.5,258C 286.191,256.933 286.691,255.766 287,254.5C 287.667,235.833 287.667,217.167 287,198.5C 286.167,197.667 285.333,196.833 284.5,196C 271.549,192.88 263.716,197.713 261,210.5C 260.192,204.702 261.359,199.368 264.5,194.5C 282.157,193.667 299.824,193.167 317.5,193C 318.381,192.292 319.047,191.458 319.5,190.5 Z"/></g>
<g><path style="opacity:1" fill="#ff706d" d="M 161.5,310.5 C 164.833,311.167 168.167,311.833 171.5,312.5C 167.5,312.5 163.5,312.5 159.5,312.5C 159.5,306.833 159.5,301.167 159.5,295.5C 163.555,295.176 167.555,295.509 171.5,296.5C 168.232,297.487 164.898,297.82 161.5,297.5C 161.5,299.5 161.5,301.5 161.5,303.5C 173.5,303.833 173.5,304.167 161.5,304.5C 161.5,306.5 161.5,308.5 161.5,310.5 Z"/></g>
<g><path style="opacity:1" fill="#545252" d="M 204.5,295.5 C 209.214,295.173 213.88,295.507 218.5,296.5C 216.604,297.466 214.604,297.799 212.5,297.5C 211.833,317.5 211.167,317.5 210.5,297.5C 207.918,297.975 205.918,297.308 204.5,295.5 Z"/></g>
<g><path style="opacity:1" fill="#484645" d="M 283.5,304.5 C 282.532,306.607 282.198,308.941 282.5,311.5C 286.042,311.187 289.375,311.521 292.5,312.5C 288.833,312.5 285.167,312.5 281.5,312.5C 281.5,306.833 281.5,301.167 281.5,295.5C 285.226,295.177 288.893,295.511 292.5,296.5C 289.232,297.487 285.898,297.82 282.5,297.5C 282.5,299.5 282.5,301.5 282.5,303.5C 285.518,303.335 288.518,303.502 291.5,304C 288.854,304.497 286.187,304.664 283.5,304.5 Z"/></g>
<g><path style="opacity:1" fill="#555352" d="M 301.5,295.5 C 306.214,295.173 310.88,295.507 315.5,296.5C 313.604,297.466 311.604,297.799 309.5,297.5C 308.833,317.5 308.167,317.5 307.5,297.5C 304.918,297.975 302.918,297.308 301.5,295.5 Z"/></g>
<g><path style="opacity:1" fill="#4f4d4d" d="M 326.5,295.5 C 326.5,298.167 326.5,300.833 326.5,303.5C 330.371,303.815 334.038,303.482 337.5,302.5C 337.192,300.076 337.526,297.743 338.5,295.5C 339.833,301.167 339.833,306.833 338.5,312.5C 337.52,309.914 337.187,307.247 337.5,304.5C 334.167,304.5 330.833,304.5 327.5,304.5C 326.779,315.042 326.113,314.876 325.5,304C 325.502,300.979 325.836,298.146 326.5,295.5 Z"/></g>
<g><path style="opacity:1" fill="#3d3b3a" d="M 353.5,297.5 C 353.5,299.5 353.5,301.5 353.5,303.5C 365.5,303.833 365.5,304.167 353.5,304.5C 353.5,306.5 353.5,308.5 353.5,310.5C 356.833,311.167 360.167,311.833 363.5,312.5C 359.833,312.5 356.167,312.5 352.5,312.5C 352.166,306.732 352.5,301.732 353.5,297.5 Z"/></g>
<g><path style="opacity:1" fill="#787676" d="M 353.5,297.5 C 352.5,301.732 352.166,306.732 352.5,312.5C 351.511,307.025 351.178,301.358 351.5,295.5C 355.555,295.176 359.555,295.509 363.5,296.5C 360.232,297.487 356.898,297.82 353.5,297.5 Z"/></g>
<g><path style="opacity:1" fill="#ff7774" d="M 132.5,295.5 C 137.449,294.959 142.116,295.792 146.5,298C 149.367,302.591 149.034,306.924 145.5,311C 141.3,312.367 136.967,312.867 132.5,312.5C 132.5,306.833 132.5,301.167 132.5,295.5 Z"/></g>
<g><path style="opacity:1" fill="#fff9f9" d="M 134.5,297.5 C 145.013,295.992 148.346,299.992 144.5,309.5C 141.242,310.417 137.909,310.751 134.5,310.5C 134.5,306.167 134.5,301.833 134.5,297.5 Z"/></g>
<g><path style="opacity:1" fill="#555352" d="M 231.5,295.5 C 240.005,294.514 244.171,298.18 244,306.5C 239.874,313.112 234.708,314.112 228.5,309.5C 226.702,306.711 226.202,303.711 227,300.5C 228.707,298.963 230.207,297.296 231.5,295.5 Z"/></g>
<g><path style="opacity:1" fill="#f8f7f7" d="M 231.5,297.5 C 237.471,296.141 241.137,298.308 242.5,304C 241.306,310.149 237.639,312.149 231.5,310C 227.547,305.835 227.547,301.669 231.5,297.5 Z"/></g>
<g><path style="opacity:1" fill="#b4b3b3" d="M 326.5,295.5 C 327.468,297.607 327.802,299.941 327.5,302.5C 330.833,302.5 334.167,302.5 337.5,302.5C 334.038,303.482 330.371,303.815 326.5,303.5C 326.5,300.833 326.5,298.167 326.5,295.5 Z"/></g>
<g><path style="opacity:1" fill="#646362" d="M 375.5,295.5 C 378.518,295.335 381.518,295.502 384.5,296C 388.738,298.172 389.572,301.338 387,305.5C 386.25,306.126 385.416,306.626 384.5,307C 385.833,308.667 387.167,310.333 388.5,312C 386.057,311.914 384.39,310.581 383.5,308C 381.527,307.505 379.527,307.338 377.5,307.5C 377.785,309.288 377.452,310.955 376.5,312.5C 375.505,306.872 375.171,301.206 375.5,295.5 Z"/></g>
<g><path style="opacity:1" fill="#fcfcfc" d="M 377.5,297.5 C 379.857,297.337 382.19,297.503 384.5,298C 387.167,300.333 387.167,302.667 384.5,305C 382.19,305.497 379.857,305.663 377.5,305.5C 377.5,302.833 377.5,300.167 377.5,297.5 Z"/></g>
<g><path style="opacity:1" fill="#ff6d6b" d="M 180.5,296.5 C 181.189,295.226 182.023,295.226 183,296.5C 184.743,300.984 186.743,305.317 189,309.5C 191.148,304.711 193.481,300.044 196,295.5C 194.78,301.295 192.947,306.962 190.5,312.5C 189.325,312.719 188.325,312.386 187.5,311.5C 185.392,306.289 183.058,301.289 180.5,296.5 Z"/></g>
<g><path style="opacity:1" fill="#565453" d="M 259.5,295.5 C 262.893,295.062 265.893,295.895 268.5,298C 263.552,296.42 259.385,297.587 256,301.5C 255.405,309.717 259.238,312.717 267.5,310.5C 267.192,308.076 267.526,305.743 268.5,303.5C 270.551,311.188 267.551,314.021 259.5,312C 257.714,311.215 256.214,310.049 255,308.5C 253.243,302.825 254.743,298.492 259.5,295.5 Z"/></g>
<g><path style="opacity:1" fill="#ffa6a5" d="M 161.5,310.5 C 165.226,310.177 168.893,310.511 172.5,311.5C 172.376,312.107 172.043,312.44 171.5,312.5C 168.167,311.833 164.833,311.167 161.5,310.5 Z"/></g>
<g><path style="opacity:1" fill="#969594" d="M 283.5,304.5 C 283.5,306.5 283.5,308.5 283.5,310.5C 286.898,310.18 290.232,310.513 293.5,311.5C 293.376,312.107 293.043,312.44 292.5,312.5C 289.375,311.521 286.042,311.187 282.5,311.5C 282.198,308.941 282.532,306.607 283.5,304.5 Z"/></g>
<g><path style="opacity:1" fill="#9b9a99" d="M 353.5,310.5 C 357.226,310.177 360.893,310.511 364.5,311.5C 364.376,312.107 364.043,312.44 363.5,312.5C 360.167,311.833 356.833,311.167 353.5,310.5 Z"/></g>
</svg>
