<?xml version="1.0" encoding="UTF-8"?>
<!DOCTYPE svg PUBLIC "-//W3C//DTD SVG 1.1//EN" "http://www.w3.org/Graphics/SVG/1.1/DTD/svg11.dtd">
<svg xmlns="http://www.w3.org/2000/svg" version="1.1" width="500px" height="500px" style="shape-rendering:geometricPrecision; text-rendering:geometricPrecision; image-rendering:optimizeQuality; fill-rule:evenodd; clip-rule:evenodd" xmlns:xlink="http://www.w3.org/1999/xlink">
<g><path style="opacity:1" fill="#fefefe" d="M -0.5,-0.5 C 166.167,-0.5 332.833,-0.5 499.5,-0.5C 499.5,166.167 499.5,332.833 499.5,499.5C 332.833,499.5 166.167,499.5 -0.5,499.5C -0.5,332.833 -0.5,166.167 -0.5,-0.5 Z"/></g>
<g><path style="opacity:1" fill="#9c926a" d="M 154.5,36.5 C 213.501,36.3333 272.501,36.5 331.5,37C 372.667,78.1667 413.833,119.333 455,160.5C 455.667,219.5 455.667,278.5 455,337.5C 413.833,378.667 372.667,419.833 331.5,461C 272.5,461.667 213.5,461.667 154.5,461C 113.333,419.833 72.1667,378.667 31,337.5C 30.3333,278.5 30.3333,219.5 31,160.5C 72.3681,119.299 113.535,77.9654 154.5,36.5 Z"/></g>
<g><path style="opacity:1" fill="#fcfcfb" d="M 155.5,39.5 C 213.834,39.3333 272.168,39.5 330.5,40C 371,80.5 411.5,121 452,161.5C 452.667,220.167 452.667,278.833 452,337.5C 411.5,378 371,418.5 330.5,459C 272.167,459.667 213.833,459.667 155.5,459C 115,418.5 74.5,378 34,337.5C 33.3333,278.833 33.3333,220.167 34,161.5C 74.7014,120.965 115.201,80.2987 155.5,39.5 Z"/></g>
<g><path style="opacity:1" fill="#9e946d" d="M 159.5,48.5 C 215.168,48.3333 270.834,48.5 326.5,49C 365.333,87.8333 404.167,126.667 443,165.5C 443.667,221.167 443.667,276.833 443,332.5C 403.833,371.667 364.667,410.833 325.5,450C 270.164,450.833 214.83,450.667 159.5,449.5C 120.847,410.347 82.0137,371.347 43,332.5C 42.3333,276.833 42.3333,221.167 43,165.5C 82.0348,126.632 120.868,87.632 159.5,48.5 Z"/></g>
<g><path style="opacity:1" fill="#fefefe" d="M 160.5,51.5 C 215.501,51.3333 270.501,51.5 325.5,52C 363.667,90.1667 401.833,128.333 440,166.5C 440.667,221.833 440.667,277.167 440,332.5C 401.833,370.667 363.667,408.833 325.5,447C 270.5,447.667 215.5,447.667 160.5,447C 122,408.5 83.5,370 45,331.5C 44.3333,276.833 44.3333,222.167 45,167.5C 83.7014,128.965 122.201,90.2987 160.5,51.5 Z"/></g>
<g><path style="opacity:1" fill="#ff9e9e" d="M 131.5,106.5 C 127.029,105.911 123.029,106.577 119.5,108.5C 118.596,107.791 118.263,106.791 118.5,105.5C 123.032,105.182 127.366,105.515 131.5,106.5 Z"/></g>
<g><path style="opacity:1" fill="#ff5a59" d="M 119.5,108.5 C 123.029,106.577 127.029,105.911 131.5,106.5C 152.169,106.081 172.836,105.914 193.5,106C 214.607,108.969 232.441,118.136 247,133.5C 263.402,155.056 267.069,178.722 258,204.5C 252.392,213.772 246.392,222.772 240,231.5C 227.116,244.143 211.616,251.643 193.5,254C 168.505,253.897 143.505,253.731 118.5,253.5C 118.5,252.5 118.5,251.5 118.5,250.5C 123.566,250.66 128.566,250.16 133.5,249C 136.663,247.52 138.496,245.02 139,241.5C 139.667,200.167 139.667,158.833 139,117.5C 138.277,114.78 136.777,112.613 134.5,111C 129.675,109.105 124.675,108.272 119.5,108.5 Z"/></g>
<g><path style="opacity:1" fill="#fffefe" d="M 164.5,109.5 C 209.237,105.41 235.737,125.41 244,169.5C 246.861,191.38 242.195,211.38 230,229.5C 220.302,240.602 208.136,247.435 193.5,250C 183.758,250.92 174.092,250.587 164.5,249C 158.677,246.845 155.51,242.678 155,236.5C 154.333,197.5 154.333,158.5 155,119.5C 156.996,115.005 160.163,111.672 164.5,109.5 Z"/></g>
<g><path style="opacity:1" fill="#444241" d="M 316.5,147.5 C 321.743,148.959 322.576,151.625 319,155.5C 270.639,223.695 222.472,292.028 174.5,360.5C 172.288,361.047 170.621,360.047 169.5,357.5C 218.525,287.482 267.525,217.482 316.5,147.5 Z"/></g>
<g><path style="opacity:1" fill="#403e3d" d="M 397.5,241.5 C 398.693,241.97 399.36,242.97 399.5,244.5C 397.974,258.121 397.307,271.788 397.5,285.5C 396.5,285.5 395.5,285.5 394.5,285.5C 395.187,276.917 393.354,268.917 389,261.5C 385.395,257.279 380.895,254.446 375.5,253C 366.5,252.333 357.5,252.333 348.5,253C 345.667,254.5 343.5,256.667 342,259.5C 341.333,300.833 341.333,342.167 342,383.5C 342.504,387.02 344.337,389.52 347.5,391C 353.407,392.361 359.407,392.861 365.5,392.5C 365.5,393.5 365.5,394.5 365.5,395.5C 344.5,395.5 323.5,395.5 302.5,395.5C 302.5,394.5 302.5,393.5 302.5,392.5C 308.994,392.834 315.327,392.001 321.5,390C 324.142,387.424 325.642,384.257 326,380.5C 326.667,340.5 326.667,300.5 326,260.5C 324.833,256.667 322.333,254.167 318.5,253C 290.29,246.435 274.29,257.268 270.5,285.5C 269.5,285.5 268.5,285.5 267.5,285.5C 268.303,276.839 269.136,268.172 270,259.5C 272.955,255.756 275.789,251.922 278.5,248C 316.121,248.729 353.788,248.396 391.5,247C 394.607,246.294 396.607,244.461 397.5,241.5 Z"/></g>
</svg>
